<svg width="692" height="692" xmlns="http://www.w3.org/2000/svg" xmlns:xlink="http://www.w3.org/1999/xlink" xml:space="preserve" overflow="hidden"><defs><clipPath id="clip0"><rect x="1425" y="815" width="692" height="692"/></clipPath><clipPath id="clip1"><rect x="1425" y="819" width="690" height="688"/></clipPath><clipPath id="clip2"><rect x="1425" y="819" width="690" height="688"/></clipPath><clipPath id="clip3"><rect x="1425" y="819" width="690" height="688"/></clipPath></defs><g clip-path="url(#clip0)" transform="translate(-1425 -815)"><g clip-path="url(#clip1)"><g clip-path="url(#clip2)"><g clip-path="url(#clip3)"><path d="M545.278 141.723C540.232 122.226 530.073 104.429 515.851 90.1688 472.627 46.945 397.172 46.945 353.948 90.1688 317.108 127.126 309.839 184.285 336.258 229.286L229.944 335.6C186.864 310.124 127.152 317.022 90.8269 353.29 46.1725 398.031 46.1725 470.48 90.8269 515.221 105.073 529.447 122.862 539.606 142.352 544.648 147.447 564.142 157.524 581.918 171.779 596.173 193.181 617.749 222.34 629.844 252.73 629.75 283.112 629.829 312.262 617.749 333.681 596.201 370.518 559.252 377.776 502.096 351.344 457.113L457.657 350.799C500.794 376.304 560.506 369.405 596.803 333.08 641.454 288.349 641.454 215.909 596.803 171.178 582.564 156.937 564.773 146.767 545.278 141.723ZM556.355 292.605C534.715 314.217 497.016 314.246 475.375 292.605L455.138 272.367 272.997 454.537 293.234 474.774C315.536 497.15 315.536 533.35 293.234 555.726 271.566 577.395 233.867 577.338 212.254 555.726 202.288 545.724 196.453 532.337 195.91 518.227L194.564 492.464 168.801 491.119C154.698 490.551 141.319 484.72 131.303 474.774 108.982 452.396 108.982 416.173 131.303 393.794 142.094 383.003 156.464 377.048 171.75 377.048 187.036 377.048 201.406 383.003 212.226 393.794L232.464 414.032 414.633 231.891 394.395 211.653C372.074 189.275 372.074 153.052 394.395 130.673 416.036 109.09 453.707 109.09 475.347 130.673 485.165 140.492 490.976 153.831 491.72 168.229L493.094 193.906 518.771 195.28C533.169 196.024 546.509 201.835 556.327 211.653 567.119 222.473 573.073 236.843 573.073 252.129 573.073 267.415 567.147 281.785 556.355 292.605Z" stroke="#4472C4" stroke-width="0.670772" stroke-linecap="butt" stroke-linejoin="miter" stroke-miterlimit="4" stroke-opacity="1" fill="#0078AA" fill-rule="nonzero" fill-opacity="1" transform="matrix(1.00146 0 0 1 1426 820)"/></g></g></g><path d="M0 0 345.985 349.479" stroke="#0078AA" stroke-width="2.29167" stroke-linecap="butt" stroke-linejoin="miter" stroke-miterlimit="8" stroke-opacity="1" fill="none" fill-rule="evenodd" transform="matrix(-1 0 0 1 1941.99 990)"/><path d="M1488.35 1272.01 1605.83 1162.77 1679.98 1242.51 1562.5 1351.75Z" stroke="#0078AA" stroke-width="4.58333" stroke-linecap="butt" stroke-linejoin="miter" stroke-miterlimit="8" stroke-opacity="1" fill="#0078AA" fill-rule="nonzero" fill-opacity="1"/><path d="M1750.51 992.48 1867.98 883.24 1942.13 962.979 1824.66 1072.22Z" stroke="#0078AA" stroke-width="4.58333" stroke-linecap="butt" stroke-linejoin="miter" stroke-miterlimit="8" stroke-opacity="1" fill="#0078AA" fill-rule="nonzero" fill-opacity="1"/><path d="M1561.62 1266.85 1892.23 928.548 1946.71 981.79 1616.1 1320.09Z" stroke="#0078AA" stroke-width="4.58333" stroke-linecap="butt" stroke-linejoin="miter" stroke-miterlimit="8" stroke-opacity="1" fill="#0078AA" fill-rule="nonzero" fill-opacity="1"/></g></svg>