<?xml version="1.0" standalone="no"?><!DOCTYPE svg PUBLIC "-//W3C//DTD SVG 1.1//EN" "http://www.w3.org/Graphics/SVG/1.1/DTD/svg11.dtd"><svg class="icon" width="200px" height="200.00px" viewBox="0 0 1024 1024" version="1.1" xmlns="http://www.w3.org/2000/svg"><path d="M804.352 219.648a141.525333 141.525333 0 0 0-40.96-93.141333 142.208 142.208 0 1 0-201.088 201.130666l-234.624 234.666667a142.208 142.208 0 1 0-201.130667 201.088c25.856 25.856 59.306667 39.168 93.141334 40.96 1.792 33.834667 15.104 67.242667 40.96 93.141333a142.208 142.208 0 1 0 201.088-201.130666l234.624-234.624a142.208 142.208 0 1 0 201.130666-201.088 141.354667 141.354667 0 0 0-93.141333-41.002667z" fill="#0078AA" /></svg>