<?xml version="1.0" standalone="no"?><!DOCTYPE svg PUBLIC "-//W3C//DTD SVG 1.1//EN" "http://www.w3.org/Graphics/SVG/1.1/DTD/svg11.dtd"><svg class="icon" width="200px" height="200.00px" viewBox="0 0 1024 1024" version="1.1" xmlns="http://www.w3.org/2000/svg"><path d="M812.757333 211.242667a168.661333 168.661333 0 0 0-43.861333-76.842667c-64.426667-64.426667-176.896-64.426667-241.322667 0a171.050667 171.050667 0 0 0-26.368 207.36l-158.464 158.464c-64.213333-37.973333-153.216-27.690667-207.36 26.368a170.837333 170.837333 0 0 0 0 241.365333 168.362667 168.362667 0 0 0 76.8 43.861334c7.594667 29.056 22.613333 55.552 43.861334 76.8A169.216 169.216 0 0 0 376.704 938.666667a169.514667 169.514667 0 0 0 120.661333-50.005334 170.965333 170.965333 0 0 0 26.325334-207.317333l158.464-158.464c64.298667 38.016 153.301333 27.733333 207.402666-26.410667a170.794667 170.794667 0 0 0 0-241.322666 168.192 168.192 0 0 0-76.8-43.904z m16.512 224.896c-32.256 32.213333-88.448 32.256-120.704 0l-30.165333-30.165334-271.488 271.530667 30.165333 30.165333a85.461333 85.461333 0 0 1 0 120.661334c-32.298667 32.298667-88.490667 32.213333-120.704 0a83.754667 83.754667 0 0 1-24.362666-55.893334l-2.005334-38.4-38.4-2.005333a84.138667 84.138667 0 0 1-55.893333-24.362667 85.461333 85.461333 0 0 1 0-120.704c16.085333-16.085333 37.504-24.96 60.288-24.96s44.202667 8.874667 60.330667 24.96l30.165333 30.165334 271.530667-271.488-30.165334-30.165334a85.461333 85.461333 0 0 1 0-120.704c32.256-32.170667 88.405333-32.170667 120.661334 0 14.634667 14.634667 23.296 34.517333 24.405333 55.978667l2.048 38.272 38.272 2.048c21.461333 1.109333 41.344 9.770667 55.978667 24.405333 16.085333 16.128 24.96 37.546667 24.96 60.330667s-8.832 44.202667-24.917334 60.330667z" fill="#0078AA" /></svg>