<?xml version="1.0" standalone="no"?><!DOCTYPE svg PUBLIC "-//W3C//DTD SVG 1.1//EN" "http://www.w3.org/Graphics/SVG/1.1/DTD/svg11.dtd"><svg t="1658478961423" class="icon" viewBox="0 0 1152 1024" version="1.1" xmlns="http://www.w3.org/2000/svg" p-id="6604" xmlns:xlink="http://www.w3.org/1999/xlink" width="225" height="200"><defs><style type="text/css">@font-face { font-family: feedback-iconfont; src: url("//at.alicdn.com/t/font_1031158_u69w8yhxdu.woff2?t=1630033759944") format("woff2"), url("//at.alicdn.com/t/font_1031158_u69w8yhxdu.woff?t=1630033759944") format("woff"), url("//at.alicdn.com/t/font_1031158_u69w8yhxdu.ttf?t=1630033759944") format("truetype"); }
</style></defs><path d="M592.01122 928h-112V677.56l337.48-337.46c31.04-31.04 9.06-84.1-34.84-84.1H49.37122c-43.9 0-65.88 53.06-34.84 84.1L352.01122 677.56V928h-112c-44.18 0-80 35.82-80 80 0 8.84 7.16 16 16 16h480c8.84 0 16-7.16 16-16 0-44.18-35.82-80-80-80zM864.01122 0c-125.22 0-230.7 80.4-270.36 192h105.08c33.3-57.1 94.54-96 165.28-96 105.86 0 192 86.12 192 192s-86.14 192-192 192c-28.08 0-54.58-6.4-78.64-17.28l-70.52 70.52C758.47122 559.84 809.19122 576 864.01122 576c159.06 0 288-128.94 288-288S1023.07122 0 864.01122 0z" p-id="6605" fill="#1296db"></path></svg>