<?xml version="1.0" standalone="no"?><!DOCTYPE svg PUBLIC "-//W3C//DTD SVG 1.1//EN" "http://www.w3.org/Graphics/SVG/1.1/DTD/svg11.dtd"><svg t="1659533485491" class="icon" viewBox="0 0 1024 1024" version="1.1" xmlns="http://www.w3.org/2000/svg" p-id="9781" xmlns:xlink="http://www.w3.org/1999/xlink" width="200" height="200"><defs><style type="text/css">@font-face { font-family: feedback-iconfont; src: url("//at.alicdn.com/t/font_1031158_u69w8yhxdu.woff2?t=1630033759944") format("woff2"), url("//at.alicdn.com/t/font_1031158_u69w8yhxdu.woff?t=1630033759944") format("woff"), url("//at.alicdn.com/t/font_1031158_u69w8yhxdu.ttf?t=1630033759944") format("truetype"); }
</style></defs><path d="M512 934.956522c221.295304 0 400.695652-179.400348 400.695652-400.695652S733.295304 133.565217 512 133.565217 111.304348 312.965565 111.304348 534.26087s179.400348 400.695652 400.695652 400.695652z" fill="#0B77E3" fill-opacity=".2" p-id="9782"></path><path d="M314.37913 466.253913c-11.686957-33.246609-41.182609-50.710261-64.155826-42.050783-22.973217 8.648348-34.726957 41.650087-23.04 74.896696 11.686957 33.235478 41.182609 50.69913 64.155826 42.039652 22.984348-8.659478 34.726957-41.661217 23.04-74.896695z m152.854261-145.641739c-5.932522-34.838261-32.055652-57.321739-56.130782-52.936348-24.07513 4.396522-41.182609 34.782609-35.250087 69.62087 5.932522 34.838261 32.055652 57.321739 56.130782 52.936347 24.07513-4.396522 41.182609-34.782609 35.250087-69.620869z m180.914087 16.684522c5.932522-34.838261-11.174957-65.224348-35.250087-69.62087-24.086261-4.396522-50.198261 18.109217-56.130782 52.936348-5.932522 34.838261 11.174957 65.224348 35.250087 69.620869 24.07513 4.396522 50.198261-18.098087 56.130782-52.936347zM796.805565 499.088696c11.686957-33.246609-0.055652-66.248348-23.04-74.907826-22.973217-8.648348-52.457739 8.815304-64.144695 42.050782-11.686957 33.235478 0.055652 66.237217 23.04 74.907826 22.973217 8.648348 52.457739-8.815304 64.144695-42.050782z m-343.262608 247.596521c3.628522-1.52487 4.630261-1.947826 6.42226-2.682434 19.366957-7.94713 33.858783-11.731478 52.034783-11.75374 18.509913-0.01113 33.146435 3.973565 53.359304 12.510609 1.625043 0.678957 3.005217 1.28 5.865739 2.504348 27.225043 11.709217 37.342609 12.844522 59.392 2.615652 62.130087-28.805565 48.873739-131.895652-23.140173-206.447304-62.252522-64.445217-128.634435-64.445217-190.886957 0-72.45913 75.01913-86.383304 180.045913-24.153043 206.002087 23.529739 9.817043 34.048 8.614957 61.106087-2.749218z" fill="#FFFFFF" p-id="9783"></path><path d="M314.37913 466.253913c-11.686957-33.246609-41.182609-50.710261-64.155826-42.050783-22.973217 8.648348-34.726957 41.650087-23.04 74.896696 11.686957 33.235478 41.182609 50.69913 64.155826 42.039652 22.984348-8.659478 34.726957-41.661217 23.04-74.896695z m21.003131-7.390609c15.070609 42.852174 0.044522 89.455304-36.185044 103.112348-36.674783 13.81287-77.83513-12.332522-93.005913-55.496348-15.070609-42.852174-0.044522-89.466435 36.185044-103.112347 36.674783-13.81287 77.83513 12.332522 93.005913 55.496347z m131.85113-138.24c-5.932522-34.838261-32.055652-57.344-56.130782-52.947478-24.07513 4.396522-41.182609 34.782609-35.250087 69.62087 5.932522 34.838261 32.055652 57.321739 56.130782 52.936347 24.07513-4.396522 41.182609-34.782609 35.250087-69.620869z m21.949218-3.750956c7.646609 44.944696-15.048348 88.297739-53.203479 95.254261-38.4 7.012174-74.384696-25.989565-82.064695-71.090087-7.657739-44.933565 15.037217-88.297739 53.203478-95.254261 38.4-7.012174 74.373565 25.989565 82.064696 71.090087z m158.964869 20.424348c5.932522-34.838261-11.174957-65.224348-35.250087-69.62087-24.086261-4.396522-50.198261 18.109217-56.130782 52.936348-5.932522 34.838261 11.174957 65.224348 35.250087 69.620869 24.07513 4.396522 50.198261-18.098087 56.130782-52.936347z m21.938087 3.739826c-7.68 45.100522-43.664696 78.102261-82.064695 71.090087-38.15513-6.956522-60.850087-50.309565-53.203479-95.254261 7.68-45.100522 43.664696-78.102261 82.075826-71.090087 38.15513 6.956522 60.850087 50.309565 53.203479 95.254261z m126.72 158.052174c11.686957-33.235478-0.055652-66.226087-23.04-74.885566-22.973217-8.659478-52.457739 8.793043-64.144695 42.039653-11.686957 33.235478 0.055652 66.237217 23.04 74.907826 22.973217 8.648348 52.457739-8.815304 64.144695-42.050783z m21.003131 7.390608c-15.170783 43.163826-56.32 69.309217-93.005913 55.496348-36.229565-13.657043-51.255652-60.260174-36.185044-103.112348 15.170783-43.163826 56.32-69.309217 93.005913-55.496347 36.229565 13.645913 51.255652 60.260174 36.185044 103.112347zM453.565217 746.696348c3.617391-1.52487 4.61913-1.947826 6.411131-2.682435 19.366957-7.94713 33.858783-11.731478 52.034782-11.753739 18.509913-0.01113 33.146435 3.973565 53.359305 12.510609 1.625043 0.678957 3.005217 1.28 5.865739 2.504347 27.225043 11.709217 37.342609 12.844522 59.392 2.615653 62.130087-28.805565 48.873739-131.895652-23.140174-206.447305-62.252522-64.445217-128.634435-64.445217-190.886957 0-72.45913 75.01913-86.383304 180.045913-24.153043 206.002087 23.529739 9.817043 34.048 8.614957 61.106087-2.749217z m8.614957 20.513391c-33.057391 13.901913-49.474783 14.803478-78.302609 2.782609-80.617739-33.613913-65.52487-156.883478 16.706783-242.020174 71.012174-73.505391 151.908174-73.505391 222.920348 0 81.67513 84.557913 95.866435 205.30087 16.495304 242.109217-27.803826 12.889043-44.154435 12.02087-77.55687-2.348521-3.005217-1.302261-4.251826-1.836522-5.732173-2.448696-18.888348-7.980522-30.386087-10.774261-44.677566-10.763131-14.135652 0.022261-25.6 2.704696-43.597913 10.084174-1.669565 0.678957-2.537739 1.046261-6.255304 2.604522zM400.695652 656.695652a11.130435 11.130435 0 1 0 0-22.260869 11.130435 11.130435 0 0 0 0 22.260869z m85.882435-123.837217c-12.699826 4.296348-30.942609 14.658783-49.051826 33.246608a157.373217 157.373217 0 0 0-26.735304 36.953044 11.130435 11.130435 0 1 0 19.72313 10.340174 135.134609 135.134609 0 0 1 22.950956-31.755131c9.004522-9.238261 18.632348-16.473043 28.226783-21.926956 5.632-3.194435 9.872696-5.053217 12.02087-5.787826a11.130435 11.130435 0 0 0-7.134609-21.069913z" fill="#005DBA" p-id="9784"></path></svg>