<?xml version="1.0" standalone="no"?><!DOCTYPE svg PUBLIC "-//W3C//DTD SVG 1.1//EN" "http://www.w3.org/Graphics/SVG/1.1/DTD/svg11.dtd"><svg t="1658479129129" class="icon" viewBox="0 0 1024 1024" version="1.1" xmlns="http://www.w3.org/2000/svg" p-id="10015" xmlns:xlink="http://www.w3.org/1999/xlink" width="200" height="200"><defs><style type="text/css">@font-face { font-family: feedback-iconfont; src: url("//at.alicdn.com/t/font_1031158_u69w8yhxdu.woff2?t=1630033759944") format("woff2"), url("//at.alicdn.com/t/font_1031158_u69w8yhxdu.woff?t=1630033759944") format("woff"), url("//at.alicdn.com/t/font_1031158_u69w8yhxdu.ttf?t=1630033759944") format("truetype"); }
</style></defs><path d="M932.570828 841.141656c0 20.004543-16.566833 36.571376-36.571377 36.571376h-264.008765c1.718855 36.571376 6.290277 74.861607 6.290276 112.018126a34.523379 34.523379 0 0 1-34.852521 34.303951h-182.856882a34.523379 34.523379 0 0 1-34.852521-34.303951c0-37.156518 4.571422-75.446749 6.290276-112.018126H128.000549c-20.004543 0-36.571376-16.566833-36.571377-36.571376a36.205663 36.205663 0 0 1 10.861699-25.709678L331.995686 585.142021H201.143301c-20.004543 0-36.571376-16.566833-36.571376-36.571376a36.205663 36.205663 0 0 1 10.861699-25.709678L405.138438 292.571011H292.571742c-20.004543 0-36.571376-16.566833-36.571376-36.571377a36.205663 36.205663 0 0 1 10.861698-25.709677l219.428258-219.428258C493.12917 4.022851 502.308585 0 512 0s18.87083 3.98628 25.709678 10.861699l219.428258 219.428258A36.425091 36.425091 0 0 1 767.999634 255.999634c0 20.004543-16.566833 36.571376-36.571376 36.571377h-112.566696l229.704814 230.289956A36.425091 36.425091 0 0 1 859.428075 548.570645c0 20.004543-16.566833 36.571376-36.571376 36.571376h-130.852385l229.704815 230.289957A36.425091 36.425091 0 0 1 932.570828 841.141656z" fill="#0ccaf3" p-id="10016"></path></svg>